<svg width="204" height="115" viewBox="0 0 204 115" fill="none" xmlns="http://www.w3.org/2000/svg">
<g filter="url(#filter0_bi_1314_313)">
<circle cx="102" cy="85" r="30" fill="white" fill-opacity="0.01"/>
</g>
<path d="M100.784 73.5249C101.099 73.6149 101.414 73.7049 101.729 73.7499C101.954 73.7949 102.134 73.7949 102.359 73.7949H102.719C103.034 73.7949 103.349 73.7049 103.619 73.6599C103.889 73.5699 104.204 73.4799 104.474 73.3449C104.744 73.2099 104.879 72.8499 104.744 72.5799C104.609 72.3099 104.249 72.1749 103.979 72.3099C103.799 72.3999 103.574 72.4899 103.349 72.5349C103.124 72.5799 102.899 72.6249 102.629 72.6699H101.864C101.594 72.6249 101.369 72.5799 101.099 72.4899C100.784 72.3999 100.469 72.5799 100.379 72.8499C100.289 73.0749 100.469 73.4349 100.784 73.5249ZM98.3091 80.2749C98.9841 80.2749 99.5241 79.7349 99.5241 79.0599C99.5241 78.3849 98.9841 77.8449 98.3091 77.8449C97.6341 77.8449 97.0941 78.3849 97.0941 79.0599C97.0941 79.7349 97.6341 80.2749 98.3091 80.2749ZM111.854 86.6199C110.819 89.0499 107.084 90.6699 102.224 90.6699C101.819 90.6699 101.504 90.3549 101.504 89.9499C101.504 89.5449 101.819 89.2299 102.224 89.2299C107.534 89.2299 110.684 87.2049 110.684 85.2249C110.684 84.8199 110.684 84.4599 110.459 84.0549C109.379 83.0199 107.219 82.2099 105.329 81.8499C105.329 80.4999 104.069 79.3749 102.719 79.3749C101.369 79.3749 100.199 80.4099 100.154 81.7149C96.4191 82.1199 93.7191 83.6049 93.1341 85.4949H93.0891V85.5849C90.9291 89.9499 87.4641 96.2949 87.5091 97.3749C87.5541 98.4549 88.6341 99.2649 91.3341 100.705C94.4391 102.37 98.4441 103.315 102.314 103.315C106.139 103.315 110.099 102.37 113.204 100.705C115.859 99.3099 116.984 98.1399 116.984 97.4199C116.939 96.6999 114.059 90.9849 111.854 86.6199ZM101.234 76.7649C101.234 77.3049 101.684 77.7999 102.269 77.7999C102.809 77.7999 103.304 77.3499 103.304 76.7649C103.304 76.1799 102.854 75.7299 102.269 75.7299C101.684 75.7299 101.234 76.1799 101.234 76.7649ZM112.034 81.1749C109.874 77.1249 107.219 72.5799 107.219 71.8149V66.7299C107.219 64.9299 105.014 63.5349 102.224 63.5349C99.4341 63.5349 97.2291 64.9299 97.2291 66.7299V71.8149C97.2291 72.6249 94.5741 77.1699 92.4141 81.1749C86.8341 91.5249 84.5391 96.0699 84.5391 97.2849C84.5391 99.2649 86.5641 101.515 89.9391 103.315C93.4941 105.205 97.8591 106.24 102.269 106.24C106.634 106.24 111.044 105.205 114.599 103.27C117.974 101.47 119.999 99.2199 119.999 97.2849C119.909 96.0699 117.614 91.5249 112.034 81.1749ZM102.224 65.1099C104.159 65.1099 105.554 65.9199 105.554 66.6849C105.554 67.4499 104.114 68.2599 102.224 68.2599C100.289 68.2599 98.8941 67.4049 98.8941 66.6849C98.8941 65.9649 100.289 65.1099 102.224 65.1099ZM113.789 101.875C111.854 102.91 107.804 104.62 102.224 104.62C92.9541 104.62 86.1591 99.8049 86.1591 97.2849C86.2491 96.0699 90.7041 87.5649 93.7191 81.9399C97.9941 73.9749 98.6241 72.4449 98.6241 71.8599V69.0699C99.5691 69.5649 100.874 69.8799 102.179 69.8799C103.484 69.8799 104.789 69.5649 105.734 69.0699V71.8599C105.734 72.4449 106.364 73.9749 110.639 81.9399C113.654 87.5649 118.154 96.0699 118.289 97.2849C118.334 98.3649 116.894 100.21 113.789 101.875Z" fill="#664EFE"/>
<g filter="url(#filter1_d_1314_313)">
<path d="M20.848 43.232C20.848 43.872 19.264 44.192 16.096 44.192C12.928 44.192 11.344 43.872 11.344 43.232V19.136H5.584C5.04 19.136 4.656 18.4 4.432 16.928C4.336 16.224 4.288 15.504 4.288 14.768C4.288 14.032 4.336 13.312 4.432 12.608C4.656 11.136 5.04 10.4 5.584 10.4H26.464C27.008 10.4 27.392 11.136 27.616 12.608C27.712 13.312 27.76 14.032 27.76 14.768C27.76 15.504 27.712 16.224 27.616 16.928C27.392 18.4 27.008 19.136 26.464 19.136H20.848V43.232ZM32.059 26.576C31.163 24.976 30.715 23.68 30.715 22.688C30.715 21.664 30.987 21.008 31.531 20.72C33.355 19.92 35.851 19.52 39.019 19.52C42.219 19.52 44.475 20.272 45.787 21.776C47.099 23.248 47.755 25.44 47.755 28.352V35.936H49.387C49.931 35.936 50.347 36.256 50.635 36.896C50.955 37.536 51.115 38.416 51.115 39.536C51.115 40.656 50.827 41.76 50.251 42.848C49.707 43.936 48.955 44.48 47.995 44.48C46.267 44.48 44.875 44.016 43.819 43.088C43.339 42.704 42.971 42.24 42.715 41.696C41.243 43.552 38.955 44.48 35.851 44.48C33.515 44.48 31.547 43.648 29.947 41.984C28.347 40.32 27.547 38.352 27.547 36.08C27.547 30.864 30.667 28.256 36.907 28.256H39.547V27.776C39.547 26.944 39.403 26.416 39.115 26.192C38.859 25.936 38.235 25.808 37.243 25.808C36.027 25.808 34.299 26.064 32.059 26.576ZM35.899 35.408C35.899 36.112 36.091 36.656 36.475 37.04C36.859 37.392 37.339 37.568 37.915 37.568C38.523 37.568 39.067 37.328 39.547 36.848V33.152H38.203C36.667 33.152 35.899 33.904 35.899 35.408ZM54.8399 35.36C57.4319 36.928 59.4799 37.712 60.9839 37.712C61.9439 37.712 62.4239 37.376 62.4239 36.704C62.4239 36.224 61.5919 35.6 59.9279 34.832C55.9279 33.2 53.9279 30.528 53.9279 26.816C53.9279 24.448 54.7919 22.64 56.5199 21.392C58.2479 20.144 60.3119 19.52 62.7119 19.52C65.1439 19.52 67.1919 19.776 68.8559 20.288C70.5519 20.8 71.3999 21.472 71.3999 22.304C71.3999 23.008 71.0479 23.936 70.3439 25.088C69.6719 26.24 69.2079 26.864 68.9519 26.96C67.5759 26.192 66.0879 25.808 64.4879 25.808C63.6239 25.808 63.1919 26.112 63.1919 26.72C63.1919 27.104 63.3519 27.44 63.6719 27.728C64.0239 27.984 64.6479 28.32 65.5439 28.736C66.4399 29.12 67.1759 29.472 67.7519 29.792C68.3599 30.112 69.0319 30.56 69.7679 31.136C71.3039 32.352 72.0719 33.936 72.0719 35.888C72.0719 38.448 71.2239 40.528 69.5279 42.128C67.8319 43.696 65.2719 44.48 61.8479 44.48C59.5759 44.48 57.5119 44.096 55.6559 43.328C53.7999 42.56 52.8719 41.504 52.8719 40.16C52.8719 39.264 53.0799 38.32 53.4959 37.328C53.9439 36.336 54.3919 35.68 54.8399 35.36ZM75.4413 10.784C75.4413 10.272 76.8973 10.016 79.8093 10.016C82.5293 10.112 83.8893 10.32 83.8893 10.64V29.072L88.6413 20.288C88.8653 19.808 90.2253 19.568 92.7213 19.568C95.2173 19.568 96.8173 19.728 97.5212 20.048L91.2813 30.224L98.4813 43.712C98.5453 43.84 97.9373 43.936 96.6573 44C95.4093 44.096 94.3693 44.144 93.5373 44.144C90.4653 44.144 88.8173 44 88.5933 43.712L83.8413 33.056V43.664C83.8413 44.08 82.4333 44.288 79.6172 44.288C76.8333 44.288 75.4413 44.096 75.4413 43.712V10.784ZM111.86 26.384H109.508C109.028 26.384 108.788 25.328 108.788 23.216C108.788 21.072 109.028 20 109.508 20H111.86V18.944C111.86 15.552 112.564 13.216 113.972 11.936C115.412 10.624 117.412 9.968 119.972 9.968C122.532 9.968 124.788 10.432 126.74 11.36C126.996 11.456 127.124 11.808 127.124 12.416C127.124 12.992 126.852 13.936 126.308 15.248C125.764 16.56 125.3 17.312 124.916 17.504C123.828 16.832 122.708 16.496 121.556 16.496C120.308 16.496 119.684 17.328 119.684 18.992V20H123.668C124.244 20 124.532 21.024 124.532 23.072C124.532 25.312 124.164 26.432 123.428 26.432H120.356V43.424C120.356 43.808 118.932 44 116.084 44C113.268 44 111.86 43.808 111.86 43.424V26.384ZM136.724 43.616C136.724 43.904 135.092 44.048 131.828 44.048C129.268 44.016 127.988 43.888 127.988 43.664V10.976C127.988 10.496 129.54 10.256 132.644 10.256C135.364 10.352 136.724 10.512 136.724 10.736V43.616ZM143.13 41.168C141.146 38.96 140.154 35.904 140.154 32C140.154 28.096 141.146 25.04 143.13 22.832C145.146 20.624 147.85 19.52 151.242 19.52C154.634 19.52 157.322 20.624 159.306 22.832C161.29 25.04 162.282 28.096 162.282 32C162.282 35.904 161.29 38.96 159.306 41.168C157.322 43.376 154.634 44.48 151.242 44.48C147.85 44.48 145.146 43.376 143.13 41.168ZM151.242 27.536C149.45 27.536 148.554 29.008 148.554 31.952C148.554 34.896 149.45 36.368 151.242 36.368C153.066 36.368 153.978 34.896 153.978 31.952C153.978 29.008 153.066 27.536 151.242 27.536ZM190.588 20.24C190.588 19.952 191.468 19.808 193.228 19.808C197.196 19.808 199.148 19.936 199.084 20.192L194.38 43.52C194.284 44.032 192.508 44.288 189.052 44.288C185.596 44.288 183.82 44.032 183.724 43.52L181.756 32.768L179.308 43.52C179.212 44 177.372 44.24 173.788 44.24C170.236 44.24 168.412 43.952 168.316 43.376L164.044 20C163.948 19.808 165.324 19.712 168.172 19.712C170.988 19.744 172.396 19.808 172.396 19.904L174.604 36.128L178.588 20.096C178.652 19.904 179.708 19.808 181.756 19.808C183.804 19.808 184.86 19.904 184.924 20.096L188.86 35.936L190.588 20.24Z" fill="#664EFE"/>
</g>
<defs>
<filter id="filter0_bi_1314_313" x="66" y="49" width="72" height="76" filterUnits="userSpaceOnUse" color-interpolation-filters="sRGB">
<feFlood flood-opacity="0" result="BackgroundImageFix"/>
<feGaussianBlur in="BackgroundImageFix" stdDeviation="3"/>
<feComposite in2="SourceAlpha" operator="in" result="effect1_backgroundBlur_1314_313"/>
<feBlend mode="normal" in="SourceGraphic" in2="effect1_backgroundBlur_1314_313" result="shape"/>
<feColorMatrix in="SourceAlpha" type="matrix" values="0 0 0 0 0 0 0 0 0 0 0 0 0 0 0 0 0 0 127 0" result="hardAlpha"/>
<feOffset dx="2" dy="10"/>
<feGaussianBlur stdDeviation="28.5"/>
<feComposite in2="hardAlpha" operator="arithmetic" k2="-1" k3="1"/>
<feColorMatrix type="matrix" values="0 0 0 0 0 0 0 0 0 0 0 0 0 0 0 0 0 0 0.25 0"/>
<feBlend mode="normal" in2="shape" result="effect2_innerShadow_1314_313"/>
</filter>
<filter id="filter1_d_1314_313" x="0.289062" y="9.96802" width="202.891" height="42.512" filterUnits="userSpaceOnUse" color-interpolation-filters="sRGB">
<feFlood flood-opacity="0" result="BackgroundImageFix"/>
<feColorMatrix in="SourceAlpha" type="matrix" values="0 0 0 0 0 0 0 0 0 0 0 0 0 0 0 0 0 0 127 0" result="hardAlpha"/>
<feOffset dy="4"/>
<feGaussianBlur stdDeviation="2"/>
<feComposite in2="hardAlpha" operator="out"/>
<feColorMatrix type="matrix" values="0 0 0 0 0 0 0 0 0 0 0 0 0 0 0 0 0 0 0.25 0"/>
<feBlend mode="normal" in2="BackgroundImageFix" result="effect1_dropShadow_1314_313"/>
<feBlend mode="normal" in="SourceGraphic" in2="effect1_dropShadow_1314_313" result="shape"/>
</filter>
</defs>
</svg>
